<svg xmlns="http://www.w3.org/2000/svg" width="408" height="351" viewBox="0 0 408 351" fill="none">
<path fill-rule="evenodd" clip-rule="evenodd" d="M386.592 95.8223L285.783 25.7559C236.375 -8.5853 170.822 -8.58532 121.414 25.7559L20.6051 95.8223C-6.86833 114.918 -6.86838 155.556 20.6051 174.652L148.809 263.759C181.748 286.653 225.449 286.653 258.388 263.759L343.432 204.649L315.502 185.092L240.125 237.482C218.166 252.745 189.031 252.745 167.072 237.482L77.5158 175.237L77.5549 175.21L49.4942 155.743L49.4814 155.752L38.8684 148.375C29.7106 142.01 29.7106 128.464 38.8684 122.099L139.677 52.0324C178.106 25.3225 229.091 25.3225 267.52 52.0324L368.329 122.099C376.355 127.677 377.346 138.772 371.304 145.714L397.467 164.276C413.393 143.371 409.768 111.931 386.592 95.8223ZM357.715 194.722L357.432 194.919L329.501 175.362L329.681 175.237L240.125 112.992C218.166 97.7287 189.031 97.7287 167.072 112.992L91.5767 165.464L63.516 145.997L148.809 86.715C181.748 63.8209 225.449 63.8209 258.388 86.7151L357.715 155.752L357.759 155.721L361.953 158.697L386.592 175.822C414.065 194.917 414.065 235.556 386.592 254.651L285.783 324.718C236.374 359.059 170.822 359.059 121.414 324.718L20.6051 254.651C-2.57892 238.538 -6.19863 207.082 9.74589 186.178L36.0019 204.636C29.8388 211.569 30.7943 222.763 38.8684 228.375L139.677 298.441C178.106 325.151 229.091 325.151 267.52 298.441L368.329 228.375C377.486 222.01 377.486 208.464 368.329 202.099L357.715 194.722ZM235.77 176.104C235.77 193.777 221.443 208.104 203.77 208.104C186.096 208.104 171.77 193.777 171.77 176.104C171.77 158.431 186.096 144.104 203.77 144.104C221.443 144.104 235.77 158.431 235.77 176.104Z" fill="#63c3ff"/>
</svg>